<?xml version="1.0" encoding="utf-8"?>
<!-- Generator: Adobe Illustrator 23.0.5, SVG Export Plug-In . SVG Version: 6.00 Build 0)  -->
<svg version="1.1" id="Calque_1" xmlns="http://www.w3.org/2000/svg" xmlns:xlink="http://www.w3.org/1999/xlink" x="0px" y="0px"
	 viewBox="0 0 173 73" style="enable-background:new 0 0 173 73;" xml:space="preserve">
<style type="text/css">
	.st0{fill:#7AC943;}
	.st1{font-family:'PoorRichard-Regular';}
	.st2{font-size:50.8119px;}
	.st3{fill:#F7931E;}
	.st4{display:none;fill:#F7931E;}
</style>
<text transform="matrix(1 0 0 1 5.4233 52.3486)" class="st0 st1 st2">Bith00k</text>
<circle class="st3" cx="129.5" cy="36.5" r="4.5"/>
<circle class="st3" cx="103.5" cy="36.5" r="3.5"/>
<path class="st4" d="M118.7,14.5c0,0,5.2-10.9,21.8-10.2L118.7,14.5z"/>
<path class="st3" d="M128.4,58c0,0-9.7,13.4-22.8-0.2L128.4,58z"/>
<path class="st4" d="M91.4,5.5c0,0,11.6-3.2,22,9.7L91.4,5.5z"/>
<g>
	<path class="st3" d="M99.3,9c3.2,0,6.3,0,9.5,0"/>
	<g>
		<path class="st3" d="M99.3,10.5c3.2,0,6.3,0,9.5,0c0.8,0,1.5-0.7,1.5-1.5c0-0.8-0.7-1.5-1.5-1.5c-3.2,0-6.3,0-9.5,0
			c-0.8,0-1.5,0.7-1.5,1.5C97.9,9.8,98.5,10.5,99.3,10.5L99.3,10.5z"/>
	</g>
</g>
<g>
	<path class="st3" d="M123,4.6c4.1,0,8.1,0,12.2,0"/>
	<g>
		<path class="st3" d="M123,6.1c4.1,0,8.1,0,12.2,0c1.9,0,1.9-3,0-3c-4.1,0-8.1,0-12.2,0C121.1,3.1,121.1,6.1,123,6.1L123,6.1z"/>
	</g>
</g>
</svg>
